<svg t="1704799901299" class="icon" viewBox="0 0 1024 1024" version="1.1" xmlns="http://www.w3.org/2000/svg" p-id="5277" width="16" height="16"><path d="M896 0a128 128 0 0 1 128 128v768a128 128 0 0 1-128 128H128a128 128 0 0 1-128-128V128a128 128 0 0 1 128-128h768zM417.92 192c-49.728 0.576-91.2 12.352-124.416 35.392-29.632 19.904-52.16 42.24-67.584 67.008l-6.144 10.752c-9.6 15.232-16.64 35.2-21.248 60.032-3.648 20.736-5.76 58.56-6.4 113.408L192 512c0 72 2.176 120.64 6.528 145.92 2.304 13.568 5.184 24.832 8.64 33.728 3.776 8.64 7.936 17.728 12.608 27.2 15.36 29.056 39.872 54.72 73.728 76.864 33.28 23.04 74.688 35.136 124.416 36.288 54.976 0 102.528-15.552 142.72-46.656 39.04-31.36 65.472-76.288 79.36-134.72H538.496c-26.56 57.28-66.752 85.952-120.576 85.952-22.528 0-41.92-4.736-58.112-14.272a115.84 115.84 0 0 1-33.408-24.064l-6.464-7.424c-12.416-13.568-20.672-31.296-24.704-53.12-4.672-21.888-6.976-63.808-6.976-125.696l0.256-31.808c0.64-44.8 2.944-76.352 6.72-94.72 3.328-17.728 9.6-32.832 18.816-45.184L320 333.248c10.112-12.992 23.424-23.808 39.872-32.448 16.192-8.32 35.584-12.8 58.112-13.376 30.72 0.64 56.704 9.344 78.08 26.368 20.544 17.856 34.688 39.424 42.496 64.768H640a237.248 237.248 0 0 0-72.832-132.608C528.64 210.56 478.976 192.64 417.92 192zM768 704a64 64 0 1 0 0 128 64 64 0 0 0 0-128z" fill="#1850AE" p-id="5278"></path></svg>