<svg t="1704794543988" class="icon" viewBox="0 0 1297 1024" version="1.1" xmlns="http://www.w3.org/2000/svg" p-id="2939" width="16" height="16"><path d="M242.447833 709.80024L298.235395 581.909885l322.795957-219.290731 66.839815 112.803152-259.640226 162.976872-35.086517 75.260579a87.716293 87.716293 0 0 1-124.030838 16.490663L245.605619 712.256296a18.771287 18.771287 0 0 1-3.157786-2.456056z" fill="#FFC400" p-id="2940"></path><path d="M322.269659 768.043858a107.364742 107.364742 0 0 1-65.611787-22.279938l-23.332534-17.543259-3.333219-2.806921-10.17509-9.47336 4.73668-14.210039 58.243618-133.153332 344.900463-234.027069 87.716293 147.187939-271.920508 170.34504-35.086517 73.681686a107.715607 107.715607 0 0 1-86.137399 42.279253z m-55.787562-64.208326l14.034607 10.701388a68.769573 68.769573 0 0 0 95.259894-11.227686l37.191708-78.418365 248.587973-155.959569-46.489635-78.418365-300.866884 204.378962z" fill="#484F59" p-id="2941"></path><path d="M381.741305 323.146822L205.957855 543.841014l-143.85472 190.69522c41.40209 41.226658 110.697961 31.227 158.941922-3.684084l61.75227-76.313174 131.925304-160.345383 210.519103-32.279596 61.050539 73.681686v178.590371H470.334761c-55.436697 1.578893-98.943978 63.155731-97.365085 118.592428 0 0 1.228028 12.631146 1.228028 14.034607h385.951688l148.942265-65.611787h197.712523V475.071441L708.747644 238.939181z" fill="#FFDC69" p-id="2942"></path><path d="M764.886072 865.935241H357.356176l-2.806921-31.753298c-1.929758-65.260922 47.366798-138.240877 116.311804-140.346068h196.83536V542.612986l-49.647421-59.647079-192.975844 29.472674L298.235395 666.643824l-63.331163 78.242933-2.105191 1.578893a178.941237 178.941237 0 0 1-101.224602 35.086517 114.732911 114.732911 0 0 1-83.155045-32.805893l-12.280281-11.929416 154.205242-204.90526 180.169265-226.132602 341.216378-87.716293 414.722632 245.60562v336.655131H913.828336z m-371.215351-39.296899h362.970019l148.942265-65.611787H1087.682028V486.299126l-381.916738-226.308035-312.796299 80.523557-171.573068 214.904917-132.100737 175.432585a81.751585 81.751585 0 0 0 42.10382 10.87682 137.714579 137.714579 0 0 0 76.137742-25.437724l59.997944-74.207984 136.837417-166.310091 229.290389-35.086517 72.804523 87.716293v205.431557H470.861059c-42.10382 0.70173-75.786877 50.349152-77.190338 92.803838z" fill="#484F59" p-id="2943"></path><path d="M976.984067 359.987665h248.237108v473.141682H976.984067z" fill="#E5E8EC" p-id="2944"></path><path d="M1225.221175 852.777797H957.335618V340.339215h267.885557v39.296899H996.632517v433.844784h228.588658v39.296899z" fill="#484F59" p-id="2945"></path><path d="M1046.279938 359.987665h187.186569v533.315059H1046.279938z" fill="#01CBD6" p-id="2946"></path><path d="M1046.279938 359.987665h187.186569v262.096282H1046.279938z" fill="#01DEE9" p-id="2947"></path><path d="M1153.293815 798.218263a17.543259 17.543259 0 1 1 17.543259-17.543259 17.543259 17.543259 0 0 1-17.543259 17.543259z" fill="#E5E8EC" p-id="2948"></path><path d="M1153.293815 742.430701a37.718006 37.718006 0 1 0 37.542574 37.718006 37.718006 37.718006 0 0 0-37.542574-37.718006z" fill="#484F59" p-id="2949"></path><path d="M1233.466507 912.951174H1026.631489V340.339215h206.835018v39.296899h-167.538119V873.654274h167.538119v39.2969z" fill="#484F59" p-id="2950"></path><path d="M37.016275 990.492376l5.087545 6.666438c54.384101-35.086517 112.101422-43.507281 141.749529-21.75364a445.072469 445.072469 0 0 1 49.822855-52.629776 450.510879 450.510879 0 0 1 56.489292-44.033579 392.442693 392.442693 0 0 1-42.630118-49.471989 419.108446 419.108446 0 0 1-35.086517-55.085831 464.545486 464.545486 0 0 1-58.594484 41.40209 462.79116 462.79116 0 0 1-64.734624 32.279595c12.104848 35.086517-12.806579 87.716293-61.927702 129.469248l4.912112 6.841871z" fill="#FFFFFF" p-id="2951"></path><path d="M36.66541 1024l-27.542916-36.840843-9.122494-12.280281 13.859174-11.929416C61.401405 922.424533 78.0675 877.162926 70.173034 854.882988l-6.14014-17.543259 17.543258-6.841871a456.124722 456.124722 0 0 0 62.103135-31.051567 456.124722 456.124722 0 0 0 56.138428-39.647764l18.595854-15.6135 11.403118 21.578208a394.372452 394.372452 0 0 0 73.857118 99.470275l17.543259 17.543259-20.35018 13.332876A440.160356 440.160356 0 0 0 245.605619 937.862601a425.424019 425.424019 0 0 0-47.54223 50.349152l-11.753983 14.560904-15.087203-11.052253C151.924619 977.334932 105.259551 980.492719 52.629776 1014.175775zM110.873394 859.619668a146.135343 146.135343 0 0 1-38.770601 99.11941 147.012506 147.012506 0 0 1 106.136714-8.420764 496.123351 496.123351 0 0 1 41.577522-42.279253A451.91434 451.91434 0 0 1 259.464794 877.162926a430.336132 430.336132 0 0 1-28.595512-35.086517c-8.947062-12.280281-17.543259-24.735995-24.735994-37.191708-13.332876 9.999657-27.718348 19.473017-42.630119 28.595511a538.578037 538.578037 0 0 1-52.629775 26.139456z" fill="#484F59" p-id="2952"></path><path d="M992.773 344.549597c99.119411-73.681686 32.630461-162.976872-66.48895-89.470618-168.239849 121.399349-545.419907 399.109131-713.659757 520.333048l76.313175 102.978927C456.124722 751.026897 829.094398 469.457598 992.773 344.549597z" fill="#FF7A7A" p-id="2953"></path><path d="M285.077951 906.109303L184.905945 771.903375l16.139798-11.578551c84.207641-60.875107 223.150248-162.450574 357.531608-260.517389s272.271372-199.993147 356.303581-260.517389a140.346068 140.346068 0 0 1 80.698989-31.227 62.804866 62.804866 0 0 1 62.629433 41.226658c8.947062 27.542916 0 71.22563-53.857804 111.048826-80.523557 60.699674-212.448861 161.222546-345.42676 261.92085S385.951688 829.445263 300.866884 894.706185z m-44.910742-126.311462l52.629776 70.173034c85.435669-65.085489 215.957512-163.854035 342.444406-259.640226 132.9779-99.119411 264.727771-199.817715 345.602193-261.394552 35.086517-25.78859 44.910742-52.629776 39.998629-67.366112a24.034264 24.034264 0 0 0-25.262292-14.385472 103.680658 103.680658 0 0 0-57.541888 23.683399c-84.207641 60.699674-222.623951 161.924276-356.30358 259.815658-125.609731 92.27754-256.307007 187.362001-341.567244 249.114271z" fill="#484F59" p-id="2954"></path><path d="M347.707384 837.339729l-78.944663-106.487579-61.75227 45.963337 78.944663 106.663012 61.75227-46.13877z" fill="#FF7A7A" p-id="2955"></path><path d="M281.744732 910.845983l-102.277197-138.065445 93.330135-69.295871 102.277197 138.591742z m-47.366798-129.820114l55.612129 74.909714 30.349838-22.630803-55.61213-74.909714z" fill="#484F59" p-id="2956"></path><path d="M779.446976 530.68357l470.685626-349.812575a60.875107 60.875107 0 0 0 17.543259-83.856775L1245.571355 65.611787a60.875107 60.875107 0 0 0-85.435669-7.192736l-471.211924 350.86517z" fill="#FF7A7A" p-id="2957"></path><path d="M775.412027 558.226486l-114.732911-153.678944L1147.50454 42.630118a89.470618 89.470618 0 0 1 52.629776-17.543258 74.032551 74.032551 0 0 1 60.173376 29.121809l23.332534 31.402433a72.62909 72.62909 0 0 1 12.104849 59.296213 88.593456 88.593456 0 0 1-34.033922 52.629776z m-59.822512-145.609046l67.892411 90.698647L1238.554052 165.082063a48.594826 48.594826 0 0 0 18.946719-28.770944 33.858489 33.858489 0 0 0-5.262978-27.718349l-23.332533-31.227a42.454686 42.454686 0 0 0-57.892754-3.157786z" fill="#484F59" p-id="2958"></path><path d="M723.659414 315.778653l-23.507966-31.577865L1057.507624 19.122152C1085.75227-1.052596 1122.768545-9.648792 1140.311804 15.6135l113.680315 152.100051-31.402433 23.332534-112.978584-152.100051a58.419051 58.419051 0 0 0-28.946377 11.929416zM5.298064 982.59791l154.503478-115.610074 23.543053 31.455063-154.503478 115.627617z" fill="#484F59" p-id="2959"></path><path d="M687.520302 603.838958v110.347096H471.562789c-55.436697 1.578893-98.943978 63.155731-97.365085 118.592428 0 0 1.228028 12.631146 1.228028 14.034607h385.951688l148.942265-65.611787z" fill="#FFDC69" p-id="2960"></path><path d="M760.851122 865.935241h-403.494946l-2.806921-31.753298c-1.929758-65.260922 47.366798-138.240877 116.311804-140.346068h196.83536v-89.996917h39.296899v129.995546H471.387357c-42.630118 1.228028-76.313175 50.87545-77.716636 93.330135h362.970019l145.258181-64.032893 15.788932 35.96368-152.801781 66.839815z" fill="#484F59" p-id="2961"></path></svg>