<svg t="1704795640782" class="icon" viewBox="0 0 1024 1024" version="1.1" xmlns="http://www.w3.org/2000/svg" p-id="9156" width="16" height="16"><path d="M665.6 876.8c19.2 0 38.4 19.2 38.4 38.4 0 25.6-19.2 38.4-38.4 38.4H358.4c-19.2 6.4-38.4-12.8-38.4-32 0-25.6 19.2-38.4 38.4-38.4h307.2z m256-812.8c19.2 0 38.4 19.2 38.4 38.4v672c0 25.6-19.2 38.4-38.4 38.4H102.4c-19.2 0-38.4-19.2-38.4-38.4V102.4c0-19.2 19.2-38.4 38.4-38.4h819.2z m-32 83.2H134.4v588.8h748.8V147.2zM512 256c19.2 0 32 12.8 32 32v25.6l38.4 19.2 19.2-19.2c6.4-6.4 12.8-6.4 19.2-6.4 6.4 0 12.8 6.4 19.2 6.4 12.8 12.8 12.8 32 0 44.8l-12.8 19.2c6.4 12.8 12.8 25.6 19.2 44.8h25.6c19.2-6.4 32 6.4 32 25.6 0 19.2-12.8 32-32 32h-25.6l-19.2 38.4 19.2 19.2c12.8 12.8 12.8 32 0 44.8-6.4 6.4-12.8 6.4-19.2 6.4-6.4 0-19.2-6.4-19.2-6.4l-19.2-19.2c-12.8 6.4-32 12.8-44.8 19.2v25.6c0 19.2-12.8 32-32 32s-32-12.8-32-32v-25.6l-38.4-19.2-19.2 19.2c-6.4 6.4-12.8 12.8-25.6 12.8-6.4 0-12.8-6.4-19.2-12.8-6.4-6.4-12.8-12.8-12.8-19.2 0-6.4 6.4-12.8 6.4-19.2l19.2-19.2c0-19.2-6.4-32-12.8-44.8h-25.6c-19.2 0-32-12.8-32-32s12.8-32 32-32h25.6c0-12.8 6.4-32 19.2-44.8l-19.2-12.8c-12.8-12.8-12.8-32 0-44.8 6.4-6.4 12.8-12.8 19.2-12.8 6.4 0 19.2 6.4 19.2 6.4l19.2 19.2c19.2 0 32-6.4 44.8-12.8v-25.6c0-19.2 12.8-32 32-32z m0 96c-25.6 0-51.2 12.8-70.4 25.6-19.2 19.2-25.6 44.8-25.6 70.4 0 51.2 44.8 96 96 96S608 499.2 608 448 563.2 352 512 352z" fill="#1890FF" p-id="9157"></path></svg>