<svg t="1704793006975" class="icon" viewBox="0 0 1024 1024" version="1.1" xmlns="http://www.w3.org/2000/svg" p-id="10100" width="32" height="32"><path d="M872.3 52.7H132.5c-44.9 0-81.6 36.7-81.6 81.6v739.8c0 44.9 36.7 81.6 81.6 81.6h739.8c44.9 0 81.6-36.7 81.6-81.6V134.3c-0.1-44.9-36.8-81.6-81.6-81.6z" fill="#FFA32E" p-id="10101"></path><path d="M502.4 871.8c-49.6 0-97.8-9.7-143.1-28.9-43.8-18.5-83.1-45-116.8-78.8-33.8-33.8-60.3-73.1-78.8-116.8-19.2-45.3-28.9-93.5-28.9-143.1s9.7-97.8 28.9-143.1c18.5-43.8 45-83.1 78.8-116.8 33.8-33.8 73.1-60.3 116.8-78.8 45.3-19.2 93.5-28.9 143.1-28.9s97.8 9.7 143.1 28.9c43.8 18.5 83.1 45 116.8 78.8 33.8 33.8 60.3 73.1 78.8 116.8 19.2 45.3 28.9 93.5 28.9 143.1s-9.7 97.8-28.9 143.1c-18.5 43.8-45 83.1-78.8 116.8-33.8 33.8-73.1 60.3-116.8 78.8-45.4 19.2-93.5 28.9-143.1 28.9z m0-715.2c-191.7 0-347.6 155.9-347.6 347.6s155.9 347.6 347.6 347.6S850 695.8 850 504.2 694 156.6 502.4 156.6z" fill="#FFFFFF" p-id="10102"></path><path d="M502.4 765.3c-1 0-2.1-0.3-3-0.8l-221-127.6c-1.9-1.1-3-3.1-3-5.2V376.6c0-2.1 1.1-4.1 3-5.2l220.9-127.6c1.9-1.1 4.1-1.1 6 0l220.9 127.6c1.9 1.1 3 3.1 3 5.2v255.1c0 2.1-1.1 4.1-3 5.2L505.4 764.5c-1 0.5-2 0.8-3 0.8z m-215-137l214.9 124.1 214.9-124.1V380.1L502.4 256l-215 124.1v248.2z" fill="#FFFFFF" p-id="10103"></path><path d="M723.3 637.7c-1 0-2.1-0.3-3-0.8L502.4 511.1l-218 125.8c-2.4 1.4-5.3 1-7.2-1-1.9-1.9-2.3-4.9-1-7.2l107.5-186.1-105.3-60.8c-2.9-1.7-3.9-5.3-2.2-8.2 1.7-2.9 5.3-3.9 8.2-2.2l105.3 60.8 107.5-186.1c1.1-1.9 3.1-3 5.2-3s4.1 1.1 5.2 3L615 432.2l105.3-60.8c2.9-1.7 6.5-0.7 8.2 2.2 1.7 2.9 0.7 6.5-2.2 8.2L621 442.6l107.5 186.1c1.4 2.4 1 5.3-1 7.2-1.1 1.2-2.6 1.8-4.2 1.8zM394.1 448.6l-96.3 166.8 192.5-111.2-96.2-55.6z m120.3 55.6l192.5 111.2-96.3-166.8-96.2 55.6z m-114.3-66l102.3 59 102.3-59-102.3-177.1-102.3 177.1z" fill="#FFFFFF" p-id="10104"></path></svg>