<svg t="1704792808929" class="icon" viewBox="0 0 1024 1024" version="1.1" xmlns="http://www.w3.org/2000/svg" p-id="5866" width="32" height="32"><path d="M624 76.8L163.2 211.2l-108.8 512 464 240L928 694.4 624 76.8z m246.4 588.8l-297.6-192 41.6-355.2 256 547.2z m-444.8 9.6l-102.4-204.8 73.6-83.2 153.6 92.8-19.2 188.8-105.6 6.4z m105.6 19.2l-19.2 182.4-76.8-179.2 96-3.2z m-131.2-19.2l-259.2 12.8 169.6-192 89.6 179.2z m-160-390.4l147.2 89.6-67.2 80-80-169.6z m176 83.2l169.6-188.8-28.8 275.2-140.8-86.4z m153.6 128l268.8 166.4-284.8 6.4 16-172.8z m41.6-384l-214.4 249.6-195.2-124.8 409.6-124.8z m-416 128l105.6 224-201.6 233.6 96-457.6zM96 710.4l310.4-12.8 102.4 220.8L96 710.4z m419.2 211.2l32-227.2 326.4-12.8-358.4 240z" fill="#9DC5FE" p-id="5867"></path><path d="M912 537.6c-57.6 0-105.6 48-105.6 105.6 0 57.6 48 105.6 105.6 105.6s105.6-48 105.6-105.6c0-57.6-48-105.6-105.6-105.6zM598.4 35.2c-57.6 0-105.6 48-105.6 105.6 0 57.6 48 105.6 105.6 105.6S704 198.4 704 140.8c0-57.6-48-105.6-105.6-105.6zM176 163.2C128 163.2 92.8 198.4 92.8 243.2s32 83.2 80 83.2S256 288 256 243.2c0-44.8-35.2-80-80-80zM518.4 835.2c-44.8 0-80 35.2-80 80s35.2 80 80 80c48 0 83.2-35.2 83.2-80s-38.4-80-83.2-80zM121.6 579.2C64 579.2 16 627.2 16 684.8c0 57.6 48 105.6 105.6 105.6s105.6-48 105.6-105.6c0-57.6-48-105.6-105.6-105.6z" fill="#4778FB" p-id="5868"></path></svg>