<svg t="1704792771227" class="icon" viewBox="0 0 1024 1024" version="1.1" xmlns="http://www.w3.org/2000/svg" p-id="4833" width="32" height="32"><path d="M884 974.1H194.9c-11.1 0-20.8-9.1-20.8-20.8V70.7c0-11.1 9.1-20.8 20.8-20.8H884c11.1 0 20.8 9.1 20.8 20.8v882.7c0 11.1-9.7 20.7-20.8 20.7z" fill="#FFFFFF" p-id="4834"></path><path d="M884 994.9H194.9c-22.8 0-41.6-18.7-41.6-41.6V70.7c0-22.8 18.7-41.6 41.6-41.6H884c22.8 0 41.6 18.7 41.6 41.6v882.7c-0.1 22.8-18.8 41.5-41.6 41.5zM194.9 70.7v882.7H884V70.7H194.9z" fill="#9B9500" p-id="4835"></path><path d="M798.9 911.3H280c-24.3 0-44.1-19.8-44.1-44.1V156.8c0-24.3 19.8-44.1 44.1-44.1h518.9c24.3 0 44.1 19.8 44.1 44.1v709.9c-0.1 24.3-19.8 44.6-44.1 44.6z" fill="#FFDD00" p-id="4836"></path><path d="M225.3 227.2c0 20.8 16.7 37.5 37.5 37.5s37.5-16.7 37.5-37.5-16.7-37.5-37.5-37.5c-20.8-0.5-37.5 16.8-37.5 37.5zM225.3 372.1c0 20.8 16.7 37.5 37.5 37.5s37.5-16.7 37.5-37.5-16.7-37.5-37.5-37.5c-20.8-0.5-37.5 16.8-37.5 37.5zM225.3 517.1c0 20.8 16.7 37.5 37.5 37.5s37.5-16.7 37.5-37.5-16.7-37.5-37.5-37.5-37.5 16.7-37.5 37.5zM225.3 662c0 20.8 16.7 37.5 37.5 37.5s37.5-16.7 37.5-37.5-16.7-37.5-37.5-37.5-37.5 16.7-37.5 37.5zM225.3 806.9c0 20.8 16.7 37.5 37.5 37.5s37.5-16.7 37.5-37.5-16.7-37.5-37.5-37.5-37.5 16.7-37.5 37.5z" fill="#FFFFFF" p-id="4837"></path><path d="M257.7 251l-127.2 73.5c-9.6 5.6-22.8 2-28.4-7.6l-1-1.5c-5.6-9.6-2-22.8 7.6-28.4l127.2-73.5c9.6-5.6 22.8-2 28.4 7.6l1 1.5c5.6 10.2 2 22.9-7.6 28.4z m0 136.9l-127.2 73.5c-9.6 5.6-22.8 2-28.4-7.6l-1-1c-5.6-9.6-2-22.8 7.6-28.4l127.2-73.5c9.6-5.6 22.8-2 28.4 7.6l1 1.5c5.6 9.6 2 22.3-7.6 27.9z m0 141.8l-127.2 73.5c-9.6 5.6-22.8 2-28.4-7.6l-1-1.5c-5.6-9.6-2-22.8 7.6-28.4l127.2-73.5c9.6-5.6 22.8-2 28.4 7.6l1 1.5c5.6 10.2 2 22.9-7.6 28.4z m0 145l-127.2 73.5c-9.6 5.6-22.8 2-28.4-7.6l-1-1.5c-5.6-9.6-2-22.8 7.6-28.4l127.2-73.5c9.6-5.6 22.8-2 28.4 7.6l1 1.5c5.6 10.1 2 22.8-7.6 28.4z m0 145.4l-127.2 73.5c-9.6 5.6-22.8 2-28.4-7.6l-1-1.5c-5.6-9.6-2-22.8 7.6-28.4l127.2-73.5c9.6-5.6 22.8-2 28.4 7.6l1 1.5c5.6 9.6 2 22.3-7.6 28.4z" fill="#9B9500" p-id="4838"></path><path d="M842.9 597.6V436.5H652.4c-44.6 0-80.6 36.5-80.6 80.6s36 80.6 80.6 80.6h186.5c1.5-0.1 2.5-0.1 4-0.1z" fill="#FFFFFF" p-id="4839"></path><path d="M618 517.1c0 18.7 15.2 33.9 34 33.9s34-15.2 34-33.9-15.2-33.9-34-33.9-34 15.1-34 33.9z" fill="#FFDD00" p-id="4840"></path></svg>