<svg t="1704793309751" class="icon" viewBox="0 0 1024 1024" version="1.1" xmlns="http://www.w3.org/2000/svg" p-id="21018" width="32" height="32"><path d="M104.576 192c7.872-21.312 20.224-45.952 37.504-67.84C166.72 92.992 204.352 64 256 64s89.344 28.992 113.92 60.16c17.28 21.888 29.632 46.528 37.568 67.84H416a32 32 0 0 1 32 32v256a31.872 31.872 0 0 1-4.736 16.768l89.408 40.512c26.368 11.904 43.328 38.464 43.328 67.776v198.912c0 30.08-17.92 57.216-45.376 68.672l-182.848 76.16c-17.792 7.424-37.76 7.424-55.552 0l-182.848-76.16A74.24 74.24 0 0 1 64 803.968V605.056c0-29.312 16.96-55.872 43.328-67.84L163.136 512H96a32 32 0 0 1-32-32v-256a32 32 0 0 1 32-32h8.576zM320 448h64V256H128v192h192zM174.4 192h163.2a174.72 174.72 0 0 0-17.92-28.16C302.144 141.632 281.152 128 256 128s-46.144 13.632-63.68 35.84a174.72 174.72 0 0 0-17.92 28.16z m287.488 384.32l-138.176-62.592a9.024 9.024 0 0 0-7.424 0l-140.16 63.488 143.68 56.128 142.08-56.96zM128 628.032v176c0 3.712 2.24 7.104 5.696 8.512L288 876.864V690.56L128 628.032z m224 62.272V876.8l154.304-64.32A9.28 9.28 0 0 0 512 803.968v-177.92l-160 64.256zM832 160v192c0 21.696-9.344 38.208-19.2 49.152a114.24 114.24 0 0 1-36.672 26.176c-27.84 13.184-64.64 20.672-104.128 20.672s-76.288-7.488-104.128-20.672a114.24 114.24 0 0 1-36.672-26.176c-9.856-10.944-19.2-27.52-19.2-49.152v-192c0-21.696 9.344-38.208 19.2-49.152 9.92-11.136 22.848-19.648 36.672-26.176C595.712 71.488 632.512 64 672 64s76.288 7.488 104.128 20.672c13.824 6.528 26.752 15.04 36.672 26.176 9.856 10.944 19.2 27.52 19.2 49.152z m-269.248 0l0.576 0.64c3.776 4.224 10.688 9.472 21.376 14.528 21.12 10.048 52.032 16.832 87.296 16.832 35.264 0 66.176-6.784 87.296-16.832 10.688-5.056 17.6-10.24 21.376-14.528l0.64-0.64-0.64-0.64a68.032 68.032 0 0 0-21.376-14.528C738.176 134.784 707.264 128 672 128c-35.264 0-66.176 6.784-87.296 16.832a68.032 68.032 0 0 0-21.376 14.528l-0.64 0.64z m220.032 72a150.528 150.528 0 0 1-6.656 3.328c-27.84 13.184-64.64 20.672-104.128 20.672s-76.288-7.488-104.128-20.672a151.296 151.296 0 0 1-6.656-3.328v117.952a20.032 20.032 0 0 0 2.112 2.688c3.776 4.224 10.688 9.472 21.376 14.528 21.12 10.048 52.032 16.832 87.296 16.832 35.328 0 66.176-6.784 87.296-16.832 10.688-5.056 17.6-10.24 21.376-14.528a20.032 20.032 0 0 0 2.112-2.688V232zM960 608v192c0 21.696-9.344 38.208-19.2 49.152a114.304 114.304 0 0 1-36.672 26.176c-27.84 13.184-64.64 20.672-104.128 20.672s-76.288-7.488-104.128-20.672a114.368 114.368 0 0 1-36.672-26.176c-9.856-10.944-19.2-27.52-19.2-49.152v-192c0-21.696 9.344-38.208 19.2-49.152 9.92-11.136 22.848-19.648 36.672-26.176C723.712 519.488 760.512 512 800 512s76.288 7.488 104.128 20.672c13.824 6.528 26.752 15.04 36.672 26.176 9.856 10.944 19.2 27.52 19.2 49.152z m-269.248 0l0.576 0.64c3.776 4.224 10.688 9.472 21.376 14.528 21.12 10.048 52.032 16.832 87.296 16.832 35.264 0 66.176-6.784 87.296-16.832 10.688-5.056 17.6-10.24 21.376-14.528l0.64-0.64-0.64-0.64a68.032 68.032 0 0 0-21.376-14.528C866.176 582.784 835.264 576 800 576c-35.264 0-66.176 6.784-87.296 16.832a68.032 68.032 0 0 0-21.376 14.528l-0.64 0.64z m220.032 72a149.12 149.12 0 0 1-6.656 3.328c-27.84 13.184-64.64 20.672-104.128 20.672s-76.288-7.488-104.128-20.672a145.472 145.472 0 0 1-6.656-3.328v117.952a20.736 20.736 0 0 0 2.112 2.688c3.776 4.224 10.688 9.472 21.376 14.528 21.12 9.984 52.032 16.832 87.296 16.832 35.328 0 66.176-6.848 87.296-16.832 10.688-5.056 17.6-10.24 21.376-14.528a19.712 19.712 0 0 0 2.112-2.688v-117.952z" fill="#000000" p-id="21019"></path><path d="M128 256v192h256V256H128zM653.184 380.416a32 32 0 0 0-44.992 4.736L468.16 558.08a32 32 0 0 0 49.728 40.32l140.032-172.992a32 32 0 0 0-4.736-44.992zM796.672 748.16a32 32 0 0 0-30.912-33.152l-247.744-8.64a32 32 0 1 0-2.24 64l247.808 8.576a32 32 0 0 0 33.088-30.848z" fill="#9859EE" p-id="21020"></path></svg>